# xmcd
#
# Track frame offsets:
#	150
#	14747
#	39525
#
# Disc length: 864 seconds
#
# Revision: 0
# Processed by: cddbd v1.5.1PL0 Copyright (c) Steve Scherf et al.
# Submitted via: dBpowerAMP V4.0
#
DISCID=20035e03
DTITLE=Solo Mc Coy - Banjo
DYEAR=1900
DGENRE=
TTITLE0=Banjo (Radio Mix)
TTITLE1=Banjo ( Jump In The Air Mix)
TTITLE2=Banjo (US Mix)
EXTD=
EXTT0=
EXTT1=
EXTT2=
PLAYORDER=
